<?xml version="1.0" encoding="UTF-8" standalone="no"?>
<!-- Created with Inkscape (http://www.inkscape.org/) -->

<svg
   width="66.168076mm"
   height="29.349207mm"
   viewBox="0 0 66.168075 29.349207"
   version="1.1"
   id="svg5"
   xml:space="preserve"
   inkscape:version="1.2 (dc2aedaf03, 2022-05-15)"
   sodipodi:docname="logo.svg"
   xmlns:inkscape="http://www.inkscape.org/namespaces/inkscape"
   xmlns:sodipodi="http://sodipodi.sourceforge.net/DTD/sodipodi-0.dtd"
   xmlns:xlink="http://www.w3.org/1999/xlink"
   xmlns="http://www.w3.org/2000/svg"
   xmlns:svg="http://www.w3.org/2000/svg"><sodipodi:namedview
     id="namedview7"
     pagecolor="#ffffff"
     bordercolor="#666666"
     borderopacity="1.0"
     inkscape:showpageshadow="2"
     inkscape:pageopacity="0.0"
     inkscape:pagecheckerboard="0"
     inkscape:deskcolor="#d1d1d1"
     inkscape:document-units="mm"
     showgrid="false"
     inkscape:zoom="1.087256"
     inkscape:cx="205.10348"
     inkscape:cy="40.468849"
     inkscape:window-width="1920"
     inkscape:window-height="1017"
     inkscape:window-x="-8"
     inkscape:window-y="-8"
     inkscape:window-maximized="1"
     inkscape:current-layer="layer1" /><defs
     id="defs2"><style
       id="style2">.cls-1, .cls-2, .cls-3, .cls-4, .cls-5 {
        fill-rule: evenodd;
        stroke-linejoin: round;
      }

      .cls-6 {
        fill-rule: evenodd;
      }

      .cls-1 {
        fill: #005a9c;
        stroke: #005a9c;
      }

      .cls-2 {
        fill: #0066b0;
        stroke: #0066b0;
      }

      .cls-3 {
        fill: #0076cc;
        stroke: #0076cc;
      }

      .cls-4 {
        fill: #0086e8;
        stroke: #0086e8;
      }

      .cls-5 {
        fill: #0093ff;
        stroke: #0093ff;
      }
    </style><linearGradient
       inkscape:collect="always"
       xlink:href="#SVGID_1_"
       id="linearGradient2133"
       gradientUnits="userSpaceOnUse"
       x1="354.49249"
       y1="372.36859"
       x2="395.17871"
       y2="425.30991" /><linearGradient
       inkscape:collect="always"
       xlink:href="#SVGID_00000181056939427114492130000007114993748606930066_"
       id="linearGradient2135"
       gradientUnits="userSpaceOnUse"
       x1="146.0235"
       y1="146.1376"
       x2="305.34769"
       y2="62.681999" /><linearGradient
       inkscape:collect="always"
       xlink:href="#SVGID_00000096018302425073518350000002335386579926447286_"
       id="linearGradient2137"
       gradientUnits="userSpaceOnUse"
       x1="143.39301"
       y1="255.2188"
       x2="377.0686"
       y2="144.45061" /><linearGradient
       inkscape:collect="always"
       xlink:href="#SVGID_00000021109473691245953370000011561702989603828098_"
       id="linearGradient2139"
       gradientUnits="userSpaceOnUse"
       x1="192.81509"
       y1="353.33041"
       x2="415.86911"
       y2="268.35739" /><linearGradient
       inkscape:collect="always"
       xlink:href="#SVGID_1_"
       id="linearGradient2523"
       gradientUnits="userSpaceOnUse"
       x1="354.49249"
       y1="372.36859"
       x2="395.17871"
       y2="425.30991" /><linearGradient
       inkscape:collect="always"
       xlink:href="#SVGID_00000181056939427114492130000007114993748606930066_"
       id="linearGradient2525"
       gradientUnits="userSpaceOnUse"
       x1="146.0235"
       y1="146.1376"
       x2="305.34769"
       y2="62.681999" /><linearGradient
       inkscape:collect="always"
       xlink:href="#SVGID_00000096018302425073518350000002335386579926447286_"
       id="linearGradient2527"
       gradientUnits="userSpaceOnUse"
       x1="143.39301"
       y1="255.2188"
       x2="377.0686"
       y2="144.45061" /><linearGradient
       inkscape:collect="always"
       xlink:href="#SVGID_00000021109473691245953370000011561702989603828098_"
       id="linearGradient2529"
       gradientUnits="userSpaceOnUse"
       x1="192.81509"
       y1="353.33041"
       x2="415.86911"
       y2="268.35739" /></defs><g
     inkscape:label="Layer 1"
     inkscape:groupmode="layer"
     id="layer1"
     transform="translate(-43.55958,-9.0039356)"><g
       id="g198"
       transform="matrix(0.04616636,0,0,0.04616636,42.33938,8.0237531)">
	<g
   id="Layer_1_00000103945279519842149160000013492041312996072115_">
		<g
   id="g176">
			<linearGradient
   id="SVGID_1_"
   gradientUnits="userSpaceOnUse"
   x1="354.49249"
   y1="372.36859"
   x2="395.17871"
   y2="425.30991">
				<stop
   offset="0"
   style="stop-color:#15768C"
   id="stop134" />
				<stop
   offset="0.1694"
   style="stop-color:#188B9D"
   id="stop136" />
				<stop
   offset="0.3807"
   style="stop-color:#1A9EAC"
   id="stop138" />
				<stop
   offset="0.5982"
   style="stop-color:#1CA9B5"
   id="stop140" />
				<stop
   offset="0.8297"
   style="stop-color:#1CADB8"
   id="stop142" />
			</linearGradient>
			<path
   class="st0"
   d="m 235.3,419.1 c 42.2,28.7 91.6,38.7 136.8,23.1 51.7,-17.9 85.9,-65.5 96.1,-123.7 -34,25.2 -78,49.6 -127.7,69.3 -36.9,14.7 -72.7,25.1 -105.2,31.3 z"
   id="path145"
   style="fill:url(#linearGradient2523)" />
			
				<linearGradient
   id="SVGID_00000181056939427114492130000007114993748606930066_"
   gradientUnits="userSpaceOnUse"
   x1="146.0235"
   y1="146.1376"
   x2="305.34769"
   y2="62.681999">
				<stop
   offset="6.610756e-02"
   style="stop-color:#FF6633"
   id="stop147" />
				<stop
   offset="0.2371"
   style="stop-color:#FF7133"
   id="stop149" />
				<stop
   offset="0.6373"
   style="stop-color:#FF8733"
   id="stop151" />
				<stop
   offset="0.8966"
   style="stop-color:#FF8F33"
   id="stop153" />
			</linearGradient>
			<path
   style="fill:url(#linearGradient2525)"
   d="M 360.1,76.9 C 320,52.8 274.4,45.1 232.5,59.6 c -49.4,17.1 -82.7,61.2 -94.6,115.8 34,-25.2 78,-49.6 127.8,-69.4 32.9,-13.1 64.9,-22.8 94.4,-29.1 z"
   id="path156" />
			<path
   class="st2"
   d="m 514.4,101.9 c -10.3,-34.3 -73,-42.5 -154.2,-25 -29.5,6.3 -61.5,16 -94.4,29.1 -49.7,19.8 -93.8,44.2 -127.8,69.4 -50.2,37.2 -78.3,76.1 -69.9,104 6.9,23 38.7,34.3 83.3,32.7 44.4,-1.5 101.6,-15.8 159.7,-43.7 -69.9,15.5 -122.9,13.2 -121.6,-7 1.9,-29.6 73,-85.9 179.2,-125.5 15.4,-5.7 29.8,-10.7 43.3,-14.9 45.5,-14.3 80.2,-20.4 102.8,-18.2 -0.3,-0.3 -0.3,-0.6 -0.4,-0.9 z"
   id="path158" />
			<path
   class="st3"
   d="m 538.2,214.4 c -7.2,-23.9 -41,-35.1 -88.2,-32.5 -43.7,2.4 -98.7,16.6 -154.7,43.5 69.9,-15.5 122.9,-13.2 121.6,7 -1.9,29.6 -73,85.9 -179.2,125.5 -17.9,6.7 -34.5,12.3 -49.9,17 -42.2,12.9 -74.7,18.2 -96.1,16.1 0.1,0.3 0.1,0.6 0.2,0.9 9.9,32.8 67.4,41.7 143.4,27.2 32.5,-6.2 68.3,-16.6 105.2,-31.3 49.7,-19.8 93.7,-44.2 127.7,-69.3 50.3,-37.3 78.4,-76.2 70,-104.1 z"
   id="path160" />
			
				<linearGradient
   id="SVGID_00000096018302425073518350000002335386579926447286_"
   gradientUnits="userSpaceOnUse"
   x1="143.39301"
   y1="255.2188"
   x2="377.0686"
   y2="144.45061">
				<stop
   offset="0"
   style="stop-color:#ED5F2F"
   id="stop162" />
				<stop
   offset="1"
   style="stop-color:#FF6633"
   id="stop164" />
			</linearGradient>
			<path
   style="fill:url(#linearGradient2527)"
   d="m 189.4,261.4 c 1.9,-29.6 73,-85.9 179.2,-125.5 15.4,-5.7 29.8,-10.7 43.3,-14.9 -15.4,-17.9 -33,-32.8 -51.7,-44.1 -29.5,6.3 -61.5,16 -94.4,29.1 -49.7,19.8 -93.8,44.2 -127.8,69.4 -8.6,39.5 -5.9,84.5 10.3,128.8 1,2.7 2,5.3 3.1,7.9 44.4,-1.5 101.6,-15.8 159.7,-43.7 -70,15.5 -123,13.3 -121.7,-7 z"
   id="path167" />
			
				<linearGradient
   id="SVGID_00000021109473691245953370000011561702989603828098_"
   gradientUnits="userSpaceOnUse"
   x1="192.81509"
   y1="353.33041"
   x2="415.86911"
   y2="268.35739">
				<stop
   offset="0"
   style="stop-color:#1BACB5"
   id="stop169" />
				<stop
   offset="0.9115"
   style="stop-color:#1FBEC9"
   id="stop171" />
			</linearGradient>
			<path
   style="fill:url(#linearGradient2529)"
   d="m 456.3,197.6 c -2,-5.3 -4.1,-10.5 -6.4,-15.7 -43.7,2.4 -98.7,16.6 -154.7,43.5 69.9,-15.5 122.9,-13.2 121.6,7 -1.9,29.6 -73,85.9 -179.2,125.5 -17.9,6.7 -34.5,12.3 -49.9,17 14.1,17.6 30.2,32.5 47.5,44.3 32.5,-6.2 68.3,-16.6 105.2,-31.3 49.7,-19.8 93.7,-44.2 127.7,-69.3 6.7,-37.7 3.3,-79.6 -11.8,-121 z"
   id="path174" />
		</g>
	</g>
	
</g><g
       id="g1658"
       transform="matrix(0.04605751,0,0,0.04605751,78.732324,8.2425391)"><path
         class="cls-4"
         d="M 596.3101,246.7521 543.98509,156.12253 H 648.78464 Z"
         data-name="Triangle 4"
         id="path6"
         style="stroke-width:1" /><path
         class="cls-5"
         d="M 596.3101,65.496445 543.98509,156.12601 H 648.78464 Z"
         data-name="Triangle 5"
         id="path8"
         style="stroke-width:1" /><path
         class="cls-3"
         d="M 491.66704,428.01124 387.01528,246.7521 596.3188,246.7501 Z"
         data-name="Triangle 3"
         id="path10"
         style="stroke-width:1" /><path
         class="cls-2"
         d="M 491.66704,65.494707 387.01528,246.75384 596.3188,246.7521 Z"
         data-name="Triangle 2"
         id="path12"
         style="stroke-width:1" /><path
         class="cls-1"
         d="M 282.36353,428.01124 73.06001,65.492968 h 418.59834 z"
         data-name="Triangle 1"
         id="path14"
         style="stroke-width:1" /></g><g
       id="g2093"
       transform="matrix(0.04616636,0,0,0.04616636,21.518407,-58.925132)">
	<g
   id="g2071">
		<g
   id="g2069">
			<linearGradient
   id="linearGradient2033"
   gradientUnits="userSpaceOnUse"
   x1="354.49249"
   y1="372.36859"
   x2="395.17871"
   y2="425.30991">
				<stop
   offset="0"
   style="stop-color:#15768C"
   id="stop2023" />
				<stop
   offset="0.1694"
   style="stop-color:#188B9D"
   id="stop2025" />
				<stop
   offset="0.3807"
   style="stop-color:#1A9EAC"
   id="stop2027" />
				<stop
   offset="0.5982"
   style="stop-color:#1CA9B5"
   id="stop2029" />
				<stop
   offset="0.8297"
   style="stop-color:#1CADB8"
   id="stop2031" />
			</linearGradient>
			<path
   class="st0"
   d="m 235.3,419.1 c 42.2,28.7 91.6,38.7 136.8,23.1 51.7,-17.9 85.9,-65.5 96.1,-123.7 -34,25.2 -78,49.6 -127.7,69.3 -36.9,14.7 -72.7,25.1 -105.2,31.3 z"
   id="path2035"
   style="fill:url(#linearGradient2133)" />
			
				<linearGradient
   id="linearGradient2045"
   gradientUnits="userSpaceOnUse"
   x1="146.0235"
   y1="146.1376"
   x2="305.34769"
   y2="62.681999">
				<stop
   offset="6.610756e-02"
   style="stop-color:#FF6633"
   id="stop2037" />
				<stop
   offset="0.2371"
   style="stop-color:#FF7133"
   id="stop2039" />
				<stop
   offset="0.6373"
   style="stop-color:#FF8733"
   id="stop2041" />
				<stop
   offset="0.8966"
   style="stop-color:#FF8F33"
   id="stop2043" />
			</linearGradient>
			<path
   style="fill:url(#linearGradient2135)"
   d="M 360.1,76.9 C 320,52.8 274.4,45.1 232.5,59.6 c -49.4,17.1 -82.7,61.2 -94.6,115.8 34,-25.2 78,-49.6 127.8,-69.4 32.9,-13.1 64.9,-22.8 94.4,-29.1 z"
   id="path2047" />
			<path
   class="st2"
   d="m 514.4,101.9 c -10.3,-34.3 -73,-42.5 -154.2,-25 -29.5,6.3 -61.5,16 -94.4,29.1 -49.7,19.8 -93.8,44.2 -127.8,69.4 -50.2,37.2 -78.3,76.1 -69.9,104 6.9,23 38.7,34.3 83.3,32.7 44.4,-1.5 101.6,-15.8 159.7,-43.7 -69.9,15.5 -122.9,13.2 -121.6,-7 1.9,-29.6 73,-85.9 179.2,-125.5 15.4,-5.7 29.8,-10.7 43.3,-14.9 45.5,-14.3 80.2,-20.4 102.8,-18.2 -0.3,-0.3 -0.3,-0.6 -0.4,-0.9 z"
   id="path2049" />
			<path
   class="st3"
   d="m 538.2,214.4 c -7.2,-23.9 -41,-35.1 -88.2,-32.5 -43.7,2.4 -98.7,16.6 -154.7,43.5 69.9,-15.5 122.9,-13.2 121.6,7 -1.9,29.6 -73,85.9 -179.2,125.5 -17.9,6.7 -34.5,12.3 -49.9,17 -42.2,12.9 -74.7,18.2 -96.1,16.1 0.1,0.3 0.1,0.6 0.2,0.9 9.9,32.8 67.4,41.7 143.4,27.2 32.5,-6.2 68.3,-16.6 105.2,-31.3 49.7,-19.8 93.7,-44.2 127.7,-69.3 50.3,-37.3 78.4,-76.2 70,-104.1 z"
   id="path2051" />
			
				<linearGradient
   id="linearGradient2057"
   gradientUnits="userSpaceOnUse"
   x1="143.39301"
   y1="255.2188"
   x2="377.0686"
   y2="144.45061">
				<stop
   offset="0"
   style="stop-color:#ED5F2F"
   id="stop2053" />
				<stop
   offset="1"
   style="stop-color:#FF6633"
   id="stop2055" />
			</linearGradient>
			<path
   style="fill:url(#linearGradient2137)"
   d="m 189.4,261.4 c 1.9,-29.6 73,-85.9 179.2,-125.5 15.4,-5.7 29.8,-10.7 43.3,-14.9 -15.4,-17.9 -33,-32.8 -51.7,-44.1 -29.5,6.3 -61.5,16 -94.4,29.1 -49.7,19.8 -93.8,44.2 -127.8,69.4 -8.6,39.5 -5.9,84.5 10.3,128.8 1,2.7 2,5.3 3.1,7.9 44.4,-1.5 101.6,-15.8 159.7,-43.7 -70,15.5 -123,13.3 -121.7,-7 z"
   id="path2059" />
			
				<linearGradient
   id="linearGradient2065"
   gradientUnits="userSpaceOnUse"
   x1="192.81509"
   y1="353.33041"
   x2="415.86911"
   y2="268.35739">
				<stop
   offset="0"
   style="stop-color:#1BACB5"
   id="stop2061" />
				<stop
   offset="0.9115"
   style="stop-color:#1FBEC9"
   id="stop2063" />
			</linearGradient>
			<path
   style="fill:url(#linearGradient2139)"
   d="m 456.3,197.6 c -2,-5.3 -4.1,-10.5 -6.4,-15.7 -43.7,2.4 -98.7,16.6 -154.7,43.5 69.9,-15.5 122.9,-13.2 121.6,7 -1.9,29.6 -73,85.9 -179.2,125.5 -17.9,6.7 -34.5,12.3 -49.9,17 14.1,17.6 30.2,32.5 47.5,44.3 32.5,-6.2 68.3,-16.6 105.2,-31.3 49.7,-19.8 93.7,-44.2 127.7,-69.3 6.7,-37.7 3.3,-79.6 -11.8,-121 z"
   id="path2067" />
		</g>
	</g>
	<g
   id="g2091"
   style="fill:#2c2c2c;fill-opacity:1">
		<g
   id="g2083"
   style="fill:#2c2c2c;fill-opacity:1">
			<path
   class="st6"
   d="m 663.7,353.4 c -15.8,-5.2 -29.5,-12.5 -41,-21.8 l 25.4,-35.5 c 18.5,14.5 40.1,21.8 64.7,21.8 12.3,0 22.1,-2.1 29.4,-6.2 7.3,-4.2 10.9,-9.9 10.9,-17.1 0,-6.7 -3.4,-12 -10.1,-15.8 -6.7,-3.8 -17.5,-6.5 -32.2,-8 -28.5,-3.2 -49.3,-9.9 -62.4,-20 -13.2,-10.1 -19.9,-24.7 -19.9,-43.5 0,-12.7 3.5,-24 10.7,-33.6 7.2,-9.8 17.2,-17.3 30.1,-22.7 12.9,-5.4 27.9,-8 44.7,-8 14.5,0 28.7,2.1 42.5,6.2 13.8,4.1 26,10 36.6,17.6 L 770,201.1 C 753.7,189.8 735.7,184 716,184 c -12.1,0 -21.9,2 -29,6 -7.3,4 -10.9,9.3 -10.9,16.1 0,6.6 3.2,11.6 9.4,15.2 6.2,3.5 16.7,6.2 31.4,8 28.2,3.2 49.3,10.2 63.3,21.1 13.9,10.8 20.8,25.6 20.8,44.6 0,13.2 -3.6,24.7 -11.1,34.7 -7.4,10 -17.6,17.8 -31,23.3 -13.3,5.4 -28.6,8.2 -45.9,8.2 -17.1,0 -33.6,-2.6 -49.3,-7.8 z"
   id="path2073"
   style="fill:#2c2c2c;fill-opacity:1" />
			<path
   class="st6"
   d="m 827.3,147.7 h 46.8 v 208.7 h -46.8 z"
   id="path2075"
   style="fill:#2c2c2c;fill-opacity:1" />
			<path
   class="st6"
   d="M 1063.6,209.1 V 356.5 H 1023 l -2.9,-17.6 c -12.5,13.8 -28.8,20.6 -48.9,20.6 -13.8,0 -25.9,-3.2 -36.6,-9.6 -10.6,-6.5 -18.9,-15.5 -24.9,-27.2 -6,-11.6 -8.9,-24.9 -8.9,-39.7 0,-14.9 2.9,-28.2 8.9,-39.7 6,-11.6 14.2,-20.7 24.9,-27.2 10.6,-6.5 22.8,-9.6 36.6,-9.6 9.9,0 19.1,1.8 27.4,5.2 8.3,3.5 15.5,8.5 21.5,15.1 l 2.9,-17.3 h 40.6 z m -55.9,100.7 c 6.6,-6.8 9.9,-15.9 9.9,-26.9 0,-11.2 -3.3,-20.1 -9.9,-26.9 -6.6,-6.8 -15.1,-10.2 -25.4,-10.2 -10.3,0 -18.7,3.5 -25.2,10.5 -6.5,6.9 -9.6,15.9 -9.6,26.8 0,10.9 3.2,19.9 9.6,26.8 6.5,6.9 14.8,10.5 25.2,10.5 10.3,-0.4 18.8,-3.8 25.4,-10.6 z"
   id="path2077"
   style="fill:#2c2c2c;fill-opacity:1" />
			<path
   class="st6"
   d="m 1233.5,223.7 c 10.8,11.9 16.2,28.5 16.2,49.5 v 83.1 h -46.8 v -80.6 c 0,-9.5 -2.4,-17.1 -7.2,-22.3 -4.8,-5.3 -11.3,-8 -19.6,-8 -9.2,0 -16.5,3.1 -22.1,9.3 -5.5,6.1 -8.3,14.2 -8.3,24.1 v 77.5 h -46.8 V 209.1 h 40.6 l 2.9,17.3 c 5.8,-6.6 12.7,-11.6 20.7,-15.2 8,-3.5 16.9,-5.4 26.7,-5.4 18.3,0 32.8,6 43.7,17.9 z"
   id="path2079"
   style="fill:#2c2c2c;fill-opacity:1" />
			<path
   class="st6"
   d="m 1428.8,351.2 c 5.4,8 8.2,17.3 8.2,27.9 0,12.3 -3.4,23.2 -10.1,32.7 -6.7,9.4 -16.3,16.7 -28.6,21.8 -12.3,5.1 -26.7,7.6 -42.9,7.6 -15.9,0 -29.9,-2.6 -41.7,-7.8 -11.9,-5.2 -21.2,-12.5 -27.6,-22.1 -6.5,-9.5 -9.6,-20.6 -9.6,-33 0,-3.2 0.1,-5.5 0.4,-7.2 h 45 c -0.4,9.8 2.4,17.3 8.2,22.7 5.9,5.4 14.3,8 25.5,8 10,0 18,-2.2 24.1,-6.7 6.1,-4.5 9.3,-10.3 9.3,-17.8 0,-7.5 -2.8,-13.4 -8.5,-17.4 -5.6,-4.1 -13.8,-6.1 -24.3,-6.1 -16.3,0 -30.6,-3.1 -42.8,-9.3 -12.2,-6.1 -21.6,-14.8 -28.3,-26.1 -6.7,-11.2 -10,-24.3 -10,-39.2 0,-14.3 3.4,-27 10.2,-38.3 6.8,-11.2 16.3,-20 28.6,-26.2 12.2,-6.2 26.2,-9.4 41.9,-9.4 12.1,0 23.3,2.4 33.4,7.2 l 17.3,-21.5 34.3,24.7 -19.6,22.9 c 9.9,11.3 14.9,24.8 14.9,40.6 0,10.9 -2.6,21.1 -7.9,30.2 -5.3,9.3 -12.7,16.8 -22.2,22.8 9.6,4.6 17.3,11 22.8,19 z m -48.2,-46.7 c 6.4,-6.4 9.5,-14.8 9.5,-25.4 0,-10.6 -3.2,-18.9 -9.4,-25.2 -6.2,-6.2 -14.7,-9.4 -25.2,-9.4 -10.3,0 -18.7,3.2 -25,9.4 -6.4,6.2 -9.5,14.7 -9.5,25.2 0,10.3 3.2,18.7 9.5,25.2 6.4,6.5 14.7,9.6 25,9.6 10.4,0.3 18.7,-2.9 25.1,-9.4 z"
   id="path2081"
   style="fill:#2c2c2c;fill-opacity:1" />
		</g>
		<g
   id="g2089"
   style="fill:#2c2c2c;fill-opacity:1">
			<path
   class="st6"
   d="m 1495.8,209.3 v 6.6 h -9.9 v 25.7 h -7.6 v -25.7 h -9.8 v -6.6 z"
   id="path2085"
   style="fill:#2c2c2c;fill-opacity:1" />
			<path
   class="st6"
   d="m 1528.9,209.3 h 6.8 v 32.3 h -7.5 v -20.2 l -9.5,11.6 h -1.5 l -9.6,-11.7 v 20.2 h -7.5 v -32.3 h 6.8 l 11,13.7 z"
   id="path2087"
   style="fill:#2c2c2c;fill-opacity:1" />
		</g>
	</g>
</g><g
       id="g2131"
       transform="matrix(0.08424817,0,0,0.08424817,89.223146,-67.085489)"><path
         class="cls-4"
         d="M 596.3101,246.7521 543.98509,156.12253 H 648.78464 Z"
         data-name="Triangle 4"
         id="path2095"
         style="stroke-width:1" /><path
         class="cls-5"
         d="M 596.3101,65.496445 543.98509,156.12601 H 648.78464 Z"
         data-name="Triangle 5"
         id="path2097"
         style="stroke-width:1" /><path
         class="cls-3"
         d="M 491.66704,428.01124 387.01528,246.7521 596.3188,246.7501 Z"
         data-name="Triangle 3"
         id="path2099"
         style="stroke-width:1" /><path
         class="cls-2"
         d="M 491.66704,65.494707 387.01528,246.75384 596.3188,246.7521 Z"
         data-name="Triangle 2"
         id="path2101"
         style="stroke-width:1" /><path
         class="cls-1"
         d="M 282.36353,428.01124 73.06001,65.492968 h 418.59834 z"
         data-name="Triangle 1"
         id="path2103"
         style="stroke-width:1" /><path
         class="cls-6"
         d="m 198.15007,465.80182 -22.34216,86.01593 -23.36539,-86.01593 H 137.54455 L 113.01076,552.10986 90.812905,465.80182 H 76.647796 l 28.477134,101.9311 14.74931,-0.14605 24.53379,-81.92653 23.65836,81.92653 h 14.89536 l 29.49948,-101.78331 z m 101.93071,58.70796 a 40.312399,40.312554 0 0 0 -4.74576,-19.64205 34.401722,34.401854 0 0 0 -13.50875,-13.65399 40.175042,40.175197 0 0 0 -20.15229,-4.96485 41.516442,41.516602 0 0 0 -20.66433,5.04222 34.854651,34.854785 0 0 0 -13.9469,14.38511 q -4.9657,9.34723 -4.96483,21.75892 0,12.41169 5.11088,21.83282 a 36.164754,36.164893 0 0 0 14.09295,14.53028 40.42976,40.429916 0 0 0 20.37223,5.11177 q 14.31029,0 23.94959,-7.22863 a 34.409546,34.409679 0 0 0 12.85153,-18.76575 h -14.31203 a 21.26331,21.263392 0 0 1 -8.1049,10.73384 q -5.76985,4.01726 -14.38419,4.01552 a 25.769995,25.770094 0 0 1 -17.89025,-6.64443 q -7.37552,-6.64443 -8.1049,-18.47365 h 63.96467 a 78.414923,78.415225 0 0 0 0.43467,-8.03191 z m -13.72696,-2.77496 h -50.52894 q 1.02061,-11.38846 8.1049,-17.81642 a 24.632022,24.632117 0 0 1 17.16,-6.42536 28.468442,28.468552 0 0 1 12.77938,2.84712 21.856204,21.856288 0 0 1 9.12812,8.32401 24.525093,24.525187 0 0 1 3.35915,13.07065 z m 44.54002,-19.27693 v -42.93538 h -13.2888 v 108.0687 h 13.2888 v -14.74936 a 30.774814,30.774933 0 0 0 11.75616,11.53625 35.594463,35.5946 0 0 0 18.18148,4.52757 36.406432,36.406572 0 0 0 33.00468,-20.00719 45.944885,45.945062 0 0 0 4.96483,-21.61374 q 0,-12.26737 -4.96483,-21.53984 a 36.213437,36.213577 0 0 0 -13.58351,-14.38511 37.349671,37.349815 0 0 0 -19.42291,-5.1109 35.442328,35.442465 0 0 0 -17.96241,4.5267 31.429431,31.429552 0 0 0 -11.97522,11.68317 z m 54.32625,24.82598 a 33.306347,33.306476 0 0 1 -3.65125,15.99167 25.678714,25.678813 0 0 1 -9.85751,10.36872 26.846244,26.846348 0 0 1 -13.6548,3.57736 26.561968,26.562071 0 0 1 -13.50788,-3.57736 26.150768,26.150869 0 0 1 -9.93053,-10.36872 35.258027,35.258163 0 0 1 0,-31.54431 26.167286,26.167387 0 0 1 9.93053,-10.36872 26.579355,26.579458 0 0 1 13.50788,-3.57737 27.290479,27.290585 0 0 1 13.6548,3.50435 25.297941,25.298038 0 0 1 9.85751,10.22267 32.556102,32.556228 0 0 1 3.65125,15.77171 z m 124.13377,-31.98419 a 45.96488,45.965057 0 0 0 -18.18148,-22.6361 q -12.4864,-8.0293 -28.69534,-8.03191 a 51.378292,51.37849 0 0 0 -25.8491,6.64443 48.653765,48.653952 0 0 0 -18.47359,18.54668 56.129263,56.129479 0 0 0 0,53.52317 48.776342,48.77653 0 0 0 18.47359,18.47366 51.350473,51.350671 0 0 0 25.8491,6.64443 49.514416,49.514607 0 0 0 24.38774,-6.06023 48.717227,48.717414 0 0 0 17.6703,-16.50284 50.548937,50.549131 0 0 0 7.88583,-23.00035 v -10.22093 h -54.76439 v 10.80687 h 40.59842 q -1.60916,15.1936 -11.24324,24.09573 -9.63409,8.90213 -24.53379,8.90821 a 37.93561,37.935756 0 0 1 -19.2047,-4.89182 34.658179,34.658312 0 0 1 -13.43486,-13.94696 q -4.89354,-9.05252 -4.8918,-21.02867 0,-11.97614 4.8918,-21.10256 a 34.578199,34.578332 0 0 1 13.43486,-14.01998 37.952996,37.953143 0 0 1 19.2047,-4.89182 35.224992,35.225127 0 0 1 18.69092,4.89182 31.678064,31.678186 0 0 1 12.26646,13.79917 z m 88.64712,0.2921 q 0,-13.14368 -8.98121,-21.46769 -8.9812,-8.32401 -26.21336,-8.32401 h -32.86124 v 101.792 h 13.28968 v -42.49636 h 19.56896 q 17.81548,0 26.50546,-8.39703 8.68997,-8.39704 8.69345,-21.10257 z m -35.19457,18.54668 h -19.56895 v -37.38198 h 19.56895 q 21.61018,0 21.61279,18.83878 0,8.90908 -5.25693,13.72701 -5.25693,4.81793 -16.35586,4.81966 z m 51.40351,-48.33577 v 64.25614 q 0,12.70553 5.0422,21.39467 a 31.629381,31.629502 0 0 0 13.72696,12.92373 46.988099,46.98828 0 0 0 38.99186,0 32.090133,32.090257 0 0 0 13.80085,-12.92373 q 5.10393,-8.6874 5.10393,-21.39554 v -64.25614 h -13.2862 v 64.40219 q 0,13.58183 -6.64528,20.15324 -6.64527,6.5714 -18.32753,6.5714 -11.82831,0 -18.47358,-6.5714 -6.64527,-6.57141 -6.64267,-20.15324 v -64.40219 h -13.29141 z"
         fill="#eeeeee"
         id="path2105"
         style="fill:#232323;fill-opacity:1;stroke-width:1" /><g
         transform="matrix(0.86934504,0,0,0.86934839,84.588395,59.518806)"
         id="g2129"
         style="stroke-width:1.15029"><rect
           x="91.932999"
           y="621.70001"
           width="230.91"
           height="122.68"
           rx="21.974001"
           ry="21.974001"
           fill="#0093ff"
           id="rect2107"
           style="stroke-width:1.32316" /><g
           fill="#eeeeee"
           stroke-width="1.74867"
           aria-label="C++"
           id="g2115"><path
             d="m 181.95,654.12 q 0,1.1795 -0.39317,2.9206 -0.39316,1.7412 -1.0672,2.7522 -0.61783,1.011 -1.348,1.011 -0.78633,0 -1.8535,-1.011 -1.0672,-1.0672 -2.8645,-2.2467 -1.7973,-1.2357 -4.6618,-2.2467 -2.8083,-1.0672 -7.077,-1.0672 -4.718,0 -8.5935,1.7973 -3.8755,1.7412 -7.0208,4.7742 -3.0892,2.9768 -5.4482,6.9085 -2.359,3.9317 -3.9317,8.2565 -1.5165,4.2686 -2.3028,8.6496 -0.7863,4.381 -0.78633,8.3126 0,4.4933 1.1233,8.0318 1.1233,3.4823 3.2576,5.8975 2.1343,2.4152 5.2235,3.6508 3.0892,1.2357 7.0208,1.2357 4.381,0 7.5263,-0.95483 3.2015,-1.011 5.4482,-2.1905 2.3028,-1.2357 3.8193,-2.1905 1.5165,-1.011 2.4713,-1.011 0.61783,0 0.89867,0.44934 0.28083,0.44933 0.28083,1.348 0,0.28084 -0.11233,0.8425 -0.0562,0.5055 -0.1685,1.1233 -0.11234,0.61783 -0.28084,1.348 -0.11233,0.73016 -0.337,1.4042 -0.22466,0.61783 -0.50549,1.1795 -0.22467,0.50549 -0.8425,1.0672 -0.56167,0.56166 -2.4713,1.685 -1.8535,1.0672 -4.6056,2.0782 -2.696,0.95484 -6.1222,1.6288 -3.37,0.73017 -7.1893,0.73017 -5.729,0 -10.335,-1.685 -4.6056,-1.7412 -7.8633,-5.055 -3.2015,-3.37 -4.9988,-8.3126 -1.7412,-4.9988 -1.7412,-11.458 0,-5.3358 1.1233,-10.952 1.1233,-5.6728 3.3138,-11.009 2.1905,-5.3358 5.4482,-10.054 3.3138,-4.718 7.6386,-8.2565 4.381,-3.5947 9.8291,-5.6167 5.4482,-2.0782 11.963,-2.0782 4.1002,0 7.6386,0.95483 3.5946,0.89867 6.1222,2.3028 2.5275,1.4042 3.6508,2.5275 1.1233,1.0672 1.1233,2.5275 z"
             id="path2109"
             style="stroke-width:1.74867" /><path
             d="m 232.55,685.18 q 0,0.337 -0.11233,0.89867 -0.0562,0.56166 -0.22467,1.2357 -0.11233,0.674 -0.39317,1.348 -0.22466,0.67399 -0.56166,1.2357 -0.337,0.5055 -0.8425,0.8425 -0.44933,0.337 -1.011,0.337 h -18.423 l -4.1563,20.445 q -0.0562,0.44934 -0.337,0.78633 -0.28083,0.28084 -0.8425,0.5055 -0.50549,0.22467 -1.348,0.39317 -0.78633,0.11233 -1.9658,0.11233 -1.1233,0 -1.9097,-0.11233 -0.78633,-0.1685 -1.2357,-0.39317 -0.39317,-0.22466 -0.56167,-0.5055 -0.1685,-0.33699 -0.11233,-0.78633 l 4.1563,-20.445 h -18.423 q -0.674,0 -1.1233,-0.44934 -0.39317,-0.50549 -0.39317,-1.685 0,-0.337 0.0562,-0.89867 0.0562,-0.61783 0.1685,-1.2918 0.1685,-0.674 0.39316,-1.2918 0.28083,-0.674 0.56167,-1.1795 0.337,-0.56167 0.78633,-0.89866 0.5055,-0.337 1.0672,-0.337 h 18.479 l 4.1002,-20.445 q 0.11233,-0.44933 0.39316,-0.78633 0.28083,-0.39317 0.78633,-0.61783 0.56167,-0.28084 1.4042,-0.39317 0.84249,-0.1685 1.9658,-0.1685 1.1795,0 1.9097,0.1685 0.78634,0.11233 1.2357,0.39317 0.44933,0.22466 0.56166,0.61783 0.1685,0.337 0.0562,0.78633 l -4.1002,20.445 h 18.479 q 0.73017,0 1.1233,0.56166 0.39317,0.5055 0.39317,1.5727 z"
             id="path2111"
             style="stroke-width:1.74867" /><path
             d="m 290.69,685.18 q 0,0.337 -0.11233,0.89867 -0.0562,0.56166 -0.22467,1.2357 -0.11233,0.674 -0.39316,1.348 -0.22467,0.67399 -0.56167,1.2357 -0.337,0.5055 -0.8425,0.8425 -0.44933,0.337 -1.011,0.337 h -18.423 l -4.1563,20.445 q -0.0562,0.44934 -0.337,0.78633 -0.28083,0.28084 -0.84249,0.5055 -0.5055,0.22467 -1.348,0.39317 -0.78633,0.11233 -1.9658,0.11233 -1.1233,0 -1.9097,-0.11233 -0.78633,-0.1685 -1.2357,-0.39317 -0.39317,-0.22466 -0.56167,-0.5055 -0.1685,-0.33699 -0.11233,-0.78633 l 4.1563,-20.445 h -18.423 q -0.674,0 -1.1233,-0.44934 -0.39317,-0.50549 -0.39317,-1.685 0,-0.337 0.0562,-0.89867 0.0562,-0.61783 0.1685,-1.2918 0.1685,-0.674 0.39316,-1.2918 0.28084,-0.674 0.56167,-1.1795 0.337,-0.56167 0.78633,-0.89866 0.5055,-0.337 1.0672,-0.337 h 18.479 l 4.1002,-20.445 q 0.11233,-0.44933 0.39316,-0.78633 0.28084,-0.39317 0.78633,-0.61783 0.56167,-0.28084 1.4042,-0.39317 0.8425,-0.1685 1.9658,-0.1685 1.1795,0 1.9097,0.1685 0.78633,0.11233 1.2357,0.39317 0.44933,0.22466 0.56166,0.61783 0.1685,0.337 0.0562,0.78633 l -4.1002,20.445 h 18.479 q 0.73016,0 1.1233,0.56166 0.39316,0.5055 0.39316,1.5727 z"
             id="path2113"
             style="stroke-width:1.74867" /></g><g
           fill="#eeeeee"
           stroke-width="1.74867"
           aria-label="guide"
           id="g2127"><path
             d="m 394.96,714.64 q -0.89866,4.4933 -2.9207,7.8633 -1.9658,3.37 -5.055,5.5605 -3.0892,2.2467 -7.3578,3.37 -4.2125,1.1233 -9.6045,1.1233 -4.6618,0 -8.5373,-0.95483 -3.8193,-0.89867 -6.1221,-2.1905 -0.8425,-0.56166 -1.1795,-1.1233 -0.28083,-0.50549 -0.28083,-1.348 0,-0.337 0,-0.95483 0.0562,-0.61783 0.1685,-1.2357 0.1685,-0.61783 0.337,-1.2918 0.22466,-0.67399 0.50549,-1.2357 0.337,-0.5055 0.78634,-0.8425 0.44933,-0.28083 0.95483,-0.28083 0.67399,0 1.685,0.56167 1.011,0.61783 2.696,1.348 1.685,0.73017 4.1563,1.348 2.5275,0.61783 6.1783,0.61783 3.033,0 5.4482,-0.61783 2.4713,-0.61783 4.2686,-1.8535 1.8535,-1.2357 2.9768,-3.1453 1.1795,-1.9097 1.7412,-4.5495 0.95483,-5.1112 1.9097,-8.4811 0.95487,-3.3699 1.5727,-5.2235 -0.89866,2.0782 -2.8645,4.2125 -1.9658,2.0782 -4.5495,3.8755 -2.5837,1.7412 -5.6728,2.8645 -3.0892,1.0672 -6.2906,1.0672 -4.2125,0 -7.1332,-1.4042 -2.9206,-1.4042 -4.718,-3.8193 -1.7412,-2.4713 -2.5275,-5.7852 -0.78634,-3.37 -0.78634,-7.2455 0,-3.2576 0.61784,-7.3016 0.61783,-4.1002 1.9658,-8.2003 1.348,-4.1563 3.4262,-8.0318 2.1343,-3.9317 5.1112,-6.9646 2.9768,-3.0892 6.8523,-4.9426 3.9316,-1.8535 8.8743,-1.8535 4.9988,0 8.5373,2.022 3.5947,2.022 6.403,5.5605 l 1.0672,-5.1112 q 0.22466,-0.89866 1.2918,-1.2918 1.0672,-0.39316 3.3138,-0.39316 1.1233,0 1.8535,0.11233 0.78634,0.0562 1.2357,0.28083 0.44933,0.22467 0.56166,0.56167 0.11234,0.337 0.0562,0.73016 z m -0.89866,-41.339 q -2.6398,-3.8755 -5.729,-5.7852 -3.033,-1.9658 -6.8523,-1.9658 -3.033,0 -5.4482,1.4042 -2.4152,1.4042 -4.3248,3.7632 -1.8535,2.3028 -3.2577,5.3358 -1.4042,3.033 -2.3028,6.2345 -0.84249,3.1453 -1.2918,6.2906 -0.39317,3.0892 -0.39317,5.6166 0,2.4152 0.39317,4.4372 0.44933,2.022 1.348,3.4823 0.95483,1.4042 2.4152,2.2467 1.5165,0.8425 3.6508,0.8425 3.0892,0 6.1783,-1.685 3.1453,-1.7412 5.8413,-4.7742 2.696,-3.033 4.7742,-7.1331 2.0782,-4.1563 3.0892,-9.0428 z"
             id="path2117"
             style="fill:#232323;fill-opacity:1;stroke-width:1.74867" /><path
             d="m 454.95,710.65 q -0.0562,0.44933 -0.337,0.78633 -0.28083,0.337 -0.78633,0.56167 -0.5055,0.1685 -1.348,0.28083 -0.78633,0.11233 -1.9658,0.11233 -1.1233,0 -1.9097,-0.11233 -0.73016,-0.11233 -1.1795,-0.28083 -0.39317,-0.22467 -0.56167,-0.56167 -0.11233,-0.337 0,-0.78633 l 1.8535,-9.4921 q -0.89867,1.9097 -2.8645,4.044 -1.9097,2.0782 -4.5495,3.8755 -2.5837,1.7973 -5.729,2.9207 -3.0892,1.1233 -6.2906,1.1233 -3.8193,0 -6.4592,-1.0672 -2.5837,-1.011 -4.2125,-2.8083 -1.5727,-1.8535 -2.3028,-4.3248 -0.67399,-2.5275 -0.67399,-5.5043 0,-1.8535 0.22466,-3.7632 0.28083,-1.9658 0.674,-3.9317 l 6.2345,-31.678 q 0.11233,-0.39316 0.39317,-0.73016 0.28083,-0.337 0.84249,-0.56167 0.61784,-0.22466 1.5165,-0.28083 0.95483,-0.11233 2.3028,-0.11233 1.348,0 2.1905,0.11233 0.89866,0.0562 1.348,0.28083 0.5055,0.22467 0.61783,0.56167 0.1685,0.337 0.11233,0.73016 l -6.1783,31.341 q -0.337,1.4603 -0.5055,3.033 -0.1685,1.5727 -0.1685,3.2015 0,1.685 0.28083,3.0892 0.337,1.348 1.0672,2.359 0.78633,1.011 1.9658,1.5727 1.2357,0.56166 2.9768,0.56166 2.9768,0 6.066,-1.685 3.1453,-1.7412 5.8413,-4.7742 2.696,-3.033 4.7742,-7.1893 2.1343,-4.2125 3.1453,-9.1551 l 4.4372,-22.354 q 0.0562,-0.39316 0.33699,-0.73016 0.337,-0.337 0.89867,-0.56167 0.61783,-0.22466 1.5165,-0.28083 0.95484,-0.11233 2.3028,-0.11233 1.348,0 2.1905,0.11233 0.89867,0.0562 1.348,0.28083 0.5055,0.22467 0.61783,0.56167 0.1685,0.337 0.11234,0.73016 z"
             id="path2119"
             style="fill:#232323;fill-opacity:1;stroke-width:1.74867" /><path
             d="m 495.95,643.08 q -0.28084,1.5727 -0.78633,2.6398 -0.44934,1.0672 -1.2357,1.7412 -0.78633,0.61783 -1.9658,0.89866 -1.1795,0.28083 -2.8645,0.28083 -1.6288,0 -2.696,-0.28083 -1.0672,-0.28083 -1.5727,-0.89866 -0.5055,-0.674 -0.56167,-1.7412 -0.0562,-1.0672 0.22467,-2.6398 0.337,-1.5727 0.8425,-2.5837 0.5055,-1.0672 1.2357,-1.7412 0.78633,-0.73017 1.9658,-0.95483 1.1795,-0.28084 2.8645,-0.28084 1.6288,0 2.6398,0.28084 1.0672,0.22466 1.5727,0.95483 0.56166,0.674 0.61783,1.7412 0.0562,1.011 -0.28083,2.5837 z m -14.547,67.568 q -0.11233,0.44933 -0.39316,0.78633 -0.28084,0.28084 -0.8425,0.5055 -0.56167,0.22467 -1.5165,0.337 -0.89866,0.11233 -2.2467,0.11233 -1.4042,0 -2.3028,-0.11233 -0.8425,-0.11233 -1.348,-0.337 -0.44933,-0.22466 -0.61783,-0.5055 -0.11233,-0.337 0,-0.78633 l 10.054,-50.55 q 0.0562,-0.39317 0.337,-0.73017 0.28084,-0.33699 0.8425,-0.56166 0.56167,-0.22467 1.4603,-0.337 0.95483,-0.11233 2.359,-0.11233 1.348,0 2.1905,0.11233 0.89866,0.11233 1.348,0.337 0.5055,0.22467 0.61783,0.56166 0.1685,0.337 0.11234,0.73017 z"
             id="path2121"
             style="fill:#232323;fill-opacity:1;stroke-width:1.74867" /><path
             d="m 540.55,710.65 q -0.1685,0.95483 -1.1795,1.348 -1.011,0.39316 -3.37,0.39316 -1.1795,0 -1.9097,-0.11233 -0.73017,-0.11233 -1.1795,-0.28083 -0.44933,-0.22467 -0.61783,-0.5055 -0.11233,-0.337 0,-0.8425 l 1.7973,-9.436 q -0.73017,1.8535 -2.6398,3.9878 -1.9097,2.0782 -4.5495,3.8755 -2.5837,1.7412 -5.7852,2.9207 -3.2015,1.1233 -6.5153,1.1233 -3.3138,0 -5.7852,-0.89867 -2.4152,-0.84249 -4.1002,-2.3028 -1.6288,-1.4603 -2.696,-3.37 -1.011,-1.9658 -1.6288,-3.9878 -0.56167,-2.0782 -0.78633,-4.1563 -0.1685,-2.0782 -0.1685,-3.8193 0,-3.2577 0.61783,-7.3016 0.61783,-4.044 1.9658,-8.088 1.348,-4.1002 3.4262,-7.9756 2.1343,-3.9317 5.1112,-6.9085 2.9768,-3.033 6.8523,-4.8865 3.9316,-1.8535 8.8743,-1.8535 2.4152,0 4.5495,0.56166 2.1343,0.5055 3.8755,1.4603 1.7412,0.89866 3.2015,2.1905 1.4603,1.29184 2.6398,2.696 l 5.729,-28.645 q 0.0562,-0.39317 0.337,-0.73017 0.28083,-0.39316 0.8425,-0.56166 0.56166,-0.22467 1.4603,-0.337 0.89866,-0.1685 2.3028,-0.1685 1.348,0 2.1905,0.1685 0.89866,0.11233 1.4042,0.337 0.5055,0.1685 0.61783,0.56166 0.1685,0.337 0.0562,0.73017 z m -1.7973,-37.182 q -2.6398,-3.8755 -5.729,-5.8975 -3.033,-2.022 -6.8523,-2.022 -2.9768,0 -5.392,1.4042 -2.359,1.348 -4.2687,3.6508 -1.9097,2.3028 -3.3138,5.2796 -1.348,2.9768 -2.2467,6.1783 -0.89867,3.1453 -1.348,6.2345 -0.44933,3.0892 -0.44933,5.6728 0,5.4482 1.8535,8.3688 1.8535,2.8645 5.9536,2.8645 3.0892,0 6.1783,-1.685 3.1453,-1.685 5.8413,-4.6618 2.696,-2.9768 4.7742,-7.077 2.0782,-4.1002 3.0892,-8.9866 z"
             id="path2123"
             style="fill:#232323;fill-opacity:1;stroke-width:1.74867" /><path
             d="m 605.98,670.44 q 0,3.8755 -1.7973,6.9646 -1.7973,3.0891 -5.6166,5.2796 -3.8193,2.1905 -9.773,3.37 -5.9536,1.1795 -14.266,1.1795 h -5.9536 q -0.39317,1.8535 -0.56167,3.5947 -0.11233,1.7412 -0.11233,3.2576 0,5.6166 2.7522,8.5935 2.8083,2.9768 9.0428,2.9768 3.5946,0 6.4591,-0.5055 2.8645,-0.56166 4.9427,-1.1795 2.1343,-0.61783 3.4823,-1.1233 1.348,-0.56167 1.8535,-0.56167 0.5055,0 0.73017,0.39317 0.28083,0.337 0.28083,1.011 0,0.56166 -0.11233,1.348 -0.11233,0.78634 -0.337,1.6288 -0.22467,0.78633 -0.61783,1.5165 -0.337,0.73016 -0.78633,1.2357 -0.674,0.674 -2.4152,1.348 -1.685,0.61783 -4.044,1.1795 -2.359,0.5055 -5.1673,0.8425 -2.8083,0.337 -5.6166,0.337 -4.9988,0 -8.762,-1.1233 -3.7632,-1.1233 -6.2906,-3.4262 -2.4713,-2.359 -3.707,-5.8413 -1.2357,-3.4823 -1.2357,-8.2003 0,-3.6508 0.67399,-7.8072 0.73017,-4.2125 2.2467,-8.3126 1.5165,-4.1002 3.9317,-7.8633 2.4152,-3.7632 5.729,-6.6276 3.37,-2.8645 7.751,-4.6056 4.381,-1.7411 9.8853,-1.7412 4.718,0 7.9756,1.1795 3.3138,1.1795 5.392,3.033 2.1343,1.8535 3.0892,4.1563 0.95483,2.2467 0.95483,4.4933 z m -9.4921,0.84249 q 0,-2.8645 -2.2467,-4.6056 -2.2467,-1.7973 -6.403,-1.7973 -3.6508,0 -6.4592,1.2918 -2.8083,1.2357 -4.9988,3.37 -2.1343,2.1343 -3.707,4.9988 -1.5165,2.8083 -2.4713,5.9536 h 5.729 q 5.8975,0 9.8291,-0.73016 3.9878,-0.73017 6.3468,-1.9658 2.4152,-1.2918 3.37,-2.9768 1.011,-1.685 1.011,-3.5385 z"
             id="path2125"
             style="fill:#232323;fill-opacity:1;stroke-width:1.74867" /></g></g></g><text
       xml:space="preserve"
       style="font-style:normal;font-variant:normal;font-weight:normal;font-stretch:normal;font-size:8.77281px;line-height:1.25;font-family:Gilroy;-inkscape-font-specification:Gilroy;letter-spacing:0px;word-spacing:0px;fill:#6c6c6c;fill-opacity:1;stroke:#6c6c6c;stroke-width:0.219321;stroke-opacity:1"
       x="74.121895"
       y="25.930307"
       id="text2537"><tspan
         sodipodi:role="line"
         id="tspan2535"
         style="font-style:normal;font-variant:normal;font-weight:300;font-stretch:normal;font-family:Gilroy;-inkscape-font-specification:'Gilroy Light';fill:#6c6c6c;fill-opacity:1;stroke:#6c6c6c;stroke-width:0.219321;stroke-opacity:1"
         x="74.121895"
         y="25.930307">x</tspan></text><g
       id="g2885"
       transform="matrix(0.02245429,0,0,0.02245429,33.467686,27.657596)">
	
	<g
   id="g2883"
   style="fill:#2c2c2c;fill-opacity:1">
		<g
   id="g2875"
   style="fill:#2c2c2c;fill-opacity:1">
			<path
   class="st6"
   d="m 663.7,353.4 c -15.8,-5.2 -29.5,-12.5 -41,-21.8 l 25.4,-35.5 c 18.5,14.5 40.1,21.8 64.7,21.8 12.3,0 22.1,-2.1 29.4,-6.2 7.3,-4.2 10.9,-9.9 10.9,-17.1 0,-6.7 -3.4,-12 -10.1,-15.8 -6.7,-3.8 -17.5,-6.5 -32.2,-8 -28.5,-3.2 -49.3,-9.9 -62.4,-20 -13.2,-10.1 -19.9,-24.7 -19.9,-43.5 0,-12.7 3.5,-24 10.7,-33.6 7.2,-9.8 17.2,-17.3 30.1,-22.7 12.9,-5.4 27.9,-8 44.7,-8 14.5,0 28.7,2.1 42.5,6.2 13.8,4.1 26,10 36.6,17.6 L 770,201.1 C 753.7,189.8 735.7,184 716,184 c -12.1,0 -21.9,2 -29,6 -7.3,4 -10.9,9.3 -10.9,16.1 0,6.6 3.2,11.6 9.4,15.2 6.2,3.5 16.7,6.2 31.4,8 28.2,3.2 49.3,10.2 63.3,21.1 13.9,10.8 20.8,25.6 20.8,44.6 0,13.2 -3.6,24.7 -11.1,34.7 -7.4,10 -17.6,17.8 -31,23.3 -13.3,5.4 -28.6,8.2 -45.9,8.2 -17.1,0 -33.6,-2.6 -49.3,-7.8 z"
   id="path2865"
   style="fill:#2c2c2c;fill-opacity:1" />
			<path
   class="st6"
   d="m 827.3,147.7 h 46.8 v 208.7 h -46.8 z"
   id="path2867"
   style="fill:#2c2c2c;fill-opacity:1" />
			<path
   class="st6"
   d="M 1063.6,209.1 V 356.5 H 1023 l -2.9,-17.6 c -12.5,13.8 -28.8,20.6 -48.9,20.6 -13.8,0 -25.9,-3.2 -36.6,-9.6 -10.6,-6.5 -18.9,-15.5 -24.9,-27.2 -6,-11.6 -8.9,-24.9 -8.9,-39.7 0,-14.9 2.9,-28.2 8.9,-39.7 6,-11.6 14.2,-20.7 24.9,-27.2 10.6,-6.5 22.8,-9.6 36.6,-9.6 9.9,0 19.1,1.8 27.4,5.2 8.3,3.5 15.5,8.5 21.5,15.1 l 2.9,-17.3 h 40.6 z m -55.9,100.7 c 6.6,-6.8 9.9,-15.9 9.9,-26.9 0,-11.2 -3.3,-20.1 -9.9,-26.9 -6.6,-6.8 -15.1,-10.2 -25.4,-10.2 -10.3,0 -18.7,3.5 -25.2,10.5 -6.5,6.9 -9.6,15.9 -9.6,26.8 0,10.9 3.2,19.9 9.6,26.8 6.5,6.9 14.8,10.5 25.2,10.5 10.3,-0.4 18.8,-3.8 25.4,-10.6 z"
   id="path2869"
   style="fill:#2c2c2c;fill-opacity:1" />
			<path
   class="st6"
   d="m 1233.5,223.7 c 10.8,11.9 16.2,28.5 16.2,49.5 v 83.1 h -46.8 v -80.6 c 0,-9.5 -2.4,-17.1 -7.2,-22.3 -4.8,-5.3 -11.3,-8 -19.6,-8 -9.2,0 -16.5,3.1 -22.1,9.3 -5.5,6.1 -8.3,14.2 -8.3,24.1 v 77.5 h -46.8 V 209.1 h 40.6 l 2.9,17.3 c 5.8,-6.6 12.7,-11.6 20.7,-15.2 8,-3.5 16.9,-5.4 26.7,-5.4 18.3,0 32.8,6 43.7,17.9 z"
   id="path2871"
   style="fill:#2c2c2c;fill-opacity:1" />
			<path
   class="st6"
   d="m 1428.8,351.2 c 5.4,8 8.2,17.3 8.2,27.9 0,12.3 -3.4,23.2 -10.1,32.7 -6.7,9.4 -16.3,16.7 -28.6,21.8 -12.3,5.1 -26.7,7.6 -42.9,7.6 -15.9,0 -29.9,-2.6 -41.7,-7.8 -11.9,-5.2 -21.2,-12.5 -27.6,-22.1 -6.5,-9.5 -9.6,-20.6 -9.6,-33 0,-3.2 0.1,-5.5 0.4,-7.2 h 45 c -0.4,9.8 2.4,17.3 8.2,22.7 5.9,5.4 14.3,8 25.5,8 10,0 18,-2.2 24.1,-6.7 6.1,-4.5 9.3,-10.3 9.3,-17.8 0,-7.5 -2.8,-13.4 -8.5,-17.4 -5.6,-4.1 -13.8,-6.1 -24.3,-6.1 -16.3,0 -30.6,-3.1 -42.8,-9.3 -12.2,-6.1 -21.6,-14.8 -28.3,-26.1 -6.7,-11.2 -10,-24.3 -10,-39.2 0,-14.3 3.4,-27 10.2,-38.3 6.8,-11.2 16.3,-20 28.6,-26.2 12.2,-6.2 26.2,-9.4 41.9,-9.4 12.1,0 23.3,2.4 33.4,7.2 l 17.3,-21.5 34.3,24.7 -19.6,22.9 c 9.9,11.3 14.9,24.8 14.9,40.6 0,10.9 -2.6,21.1 -7.9,30.2 -5.3,9.3 -12.7,16.8 -22.2,22.8 9.6,4.6 17.3,11 22.8,19 z m -48.2,-46.7 c 6.4,-6.4 9.5,-14.8 9.5,-25.4 0,-10.6 -3.2,-18.9 -9.4,-25.2 -6.2,-6.2 -14.7,-9.4 -25.2,-9.4 -10.3,0 -18.7,3.2 -25,9.4 -6.4,6.2 -9.5,14.7 -9.5,25.2 0,10.3 3.2,18.7 9.5,25.2 6.4,6.5 14.7,9.6 25,9.6 10.4,0.3 18.7,-2.9 25.1,-9.4 z"
   id="path2873"
   style="fill:#2c2c2c;fill-opacity:1" />
		</g>
		<g
   id="g2881"
   style="fill:#2c2c2c;fill-opacity:1">
			<path
   class="st6"
   d="m 1495.8,209.3 v 6.6 h -9.9 v 25.7 h -7.6 v -25.7 h -9.8 v -6.6 z"
   id="path2877"
   style="fill:#2c2c2c;fill-opacity:1" />
			<path
   class="st6"
   d="m 1528.9,209.3 h 6.8 v 32.3 h -7.5 v -20.2 l -9.5,11.6 h -1.5 l -9.6,-11.7 v 20.2 h -7.5 v -32.3 h 6.8 l 11,13.7 z"
   id="path2879"
   style="fill:#2c2c2c;fill-opacity:1" />
		</g>
	</g>
</g><g
       id="g2931"
       transform="matrix(0.04097643,0,0,0.04097643,80.179619,11.928555)"><path
         class="cls-6"
         d="m 198.15007,465.80182 -22.34216,86.01593 -23.36539,-86.01593 H 137.54455 L 113.01076,552.10986 90.812905,465.80182 H 76.647796 l 28.477134,101.9311 14.74931,-0.14605 24.53379,-81.92653 23.65836,81.92653 h 14.89536 l 29.49948,-101.78331 z m 101.93071,58.70796 a 40.312399,40.312554 0 0 0 -4.74576,-19.64205 34.401722,34.401854 0 0 0 -13.50875,-13.65399 40.175042,40.175197 0 0 0 -20.15229,-4.96485 41.516442,41.516602 0 0 0 -20.66433,5.04222 34.854651,34.854785 0 0 0 -13.9469,14.38511 q -4.9657,9.34723 -4.96483,21.75892 0,12.41169 5.11088,21.83282 a 36.164754,36.164893 0 0 0 14.09295,14.53028 40.42976,40.429916 0 0 0 20.37223,5.11177 q 14.31029,0 23.94959,-7.22863 a 34.409546,34.409679 0 0 0 12.85153,-18.76575 h -14.31203 a 21.26331,21.263392 0 0 1 -8.1049,10.73384 q -5.76985,4.01726 -14.38419,4.01552 a 25.769995,25.770094 0 0 1 -17.89025,-6.64443 q -7.37552,-6.64443 -8.1049,-18.47365 h 63.96467 a 78.414923,78.415225 0 0 0 0.43467,-8.03191 z m -13.72696,-2.77496 h -50.52894 q 1.02061,-11.38846 8.1049,-17.81642 a 24.632022,24.632117 0 0 1 17.16,-6.42536 28.468442,28.468552 0 0 1 12.77938,2.84712 21.856204,21.856288 0 0 1 9.12812,8.32401 24.525093,24.525187 0 0 1 3.35915,13.07065 z m 44.54002,-19.27693 v -42.93538 h -13.2888 v 108.0687 h 13.2888 v -14.74936 a 30.774814,30.774933 0 0 0 11.75616,11.53625 35.594463,35.5946 0 0 0 18.18148,4.52757 36.406432,36.406572 0 0 0 33.00468,-20.00719 45.944885,45.945062 0 0 0 4.96483,-21.61374 q 0,-12.26737 -4.96483,-21.53984 a 36.213437,36.213577 0 0 0 -13.58351,-14.38511 37.349671,37.349815 0 0 0 -19.42291,-5.1109 35.442328,35.442465 0 0 0 -17.96241,4.5267 31.429431,31.429552 0 0 0 -11.97522,11.68317 z m 54.32625,24.82598 a 33.306347,33.306476 0 0 1 -3.65125,15.99167 25.678714,25.678813 0 0 1 -9.85751,10.36872 26.846244,26.846348 0 0 1 -13.6548,3.57736 26.561968,26.562071 0 0 1 -13.50788,-3.57736 26.150768,26.150869 0 0 1 -9.93053,-10.36872 35.258027,35.258163 0 0 1 0,-31.54431 26.167286,26.167387 0 0 1 9.93053,-10.36872 26.579355,26.579458 0 0 1 13.50788,-3.57737 27.290479,27.290585 0 0 1 13.6548,3.50435 25.297941,25.298038 0 0 1 9.85751,10.22267 32.556102,32.556228 0 0 1 3.65125,15.77171 z m 124.13377,-31.98419 a 45.96488,45.965057 0 0 0 -18.18148,-22.6361 q -12.4864,-8.0293 -28.69534,-8.03191 a 51.378292,51.37849 0 0 0 -25.8491,6.64443 48.653765,48.653952 0 0 0 -18.47359,18.54668 56.129263,56.129479 0 0 0 0,53.52317 48.776342,48.77653 0 0 0 18.47359,18.47366 51.350473,51.350671 0 0 0 25.8491,6.64443 49.514416,49.514607 0 0 0 24.38774,-6.06023 48.717227,48.717414 0 0 0 17.6703,-16.50284 50.548937,50.549131 0 0 0 7.88583,-23.00035 v -10.22093 h -54.76439 v 10.80687 h 40.59842 q -1.60916,15.1936 -11.24324,24.09573 -9.63409,8.90213 -24.53379,8.90821 a 37.93561,37.935756 0 0 1 -19.2047,-4.89182 34.658179,34.658312 0 0 1 -13.43486,-13.94696 q -4.89354,-9.05252 -4.8918,-21.02867 0,-11.97614 4.8918,-21.10256 a 34.578199,34.578332 0 0 1 13.43486,-14.01998 37.952996,37.953143 0 0 1 19.2047,-4.89182 35.224992,35.225127 0 0 1 18.69092,4.89182 31.678064,31.678186 0 0 1 12.26646,13.79917 z m 88.64712,0.2921 q 0,-13.14368 -8.98121,-21.46769 -8.9812,-8.32401 -26.21336,-8.32401 h -32.86124 v 101.792 h 13.28968 v -42.49636 h 19.56896 q 17.81548,0 26.50546,-8.39703 8.68997,-8.39704 8.69345,-21.10257 z m -35.19457,18.54668 h -19.56895 v -37.38198 h 19.56895 q 21.61018,0 21.61279,18.83878 0,8.90908 -5.25693,13.72701 -5.25693,4.81793 -16.35586,4.81966 z m 51.40351,-48.33577 v 64.25614 q 0,12.70553 5.0422,21.39467 a 31.629381,31.629502 0 0 0 13.72696,12.92373 46.988099,46.98828 0 0 0 38.99186,0 32.090133,32.090257 0 0 0 13.80085,-12.92373 q 5.10393,-8.6874 5.10393,-21.39554 v -64.25614 h -13.2862 v 64.40219 q 0,13.58183 -6.64528,20.15324 -6.64527,6.5714 -18.32753,6.5714 -11.82831,0 -18.47358,-6.5714 -6.64527,-6.57141 -6.64267,-20.15324 v -64.40219 h -13.29141 z"
         fill="#eeeeee"
         id="path2905"
         style="fill:#232323;fill-opacity:1;stroke-width:1" /></g></g><style
     type="text/css"
     id="style132">
	.st0{fill:url(#SVGID_1_);}
	.st1{fill:url(#SVGID_00000053514572729592024110000014897014390672490883_);}
	.st2{fill:#FF6633;}
	.st3{fill:#1FBEC9;}
	.st4{fill:url(#SVGID_00000013897133104421477870000000244859300852217745_);}
	.st5{fill:url(#SVGID_00000012444638164623076190000009143368671448876929_);}
	.st6{fill:#FFFFFF;}
</style></svg>
